ffmpeg started on 2016-12-01 at 17:54:29
Report written to "Output/x264/results/ffmpeg/old_town_cross_2160p50slow7000k.log"
Command line:
Tools/ffmpeg/ffmpeg -benchmark -y -i Input/y4m/old_town_cross_2160p50.y4m -c:v libx264 -preset slow -b:v 7000k -an Output/x264/encoded/old_town_cross_2160p50slow7000k.mkv
ffmpeg version N-82227-gdb23fde Copyright (c) 2000-2016 the FFmpeg developers
  built with gcc 5.4.0 (Ubuntu 5.4.0-6ubuntu1~16.04.2) 20160609
  configuration: --prefix=/home/jaroslav/ffmpeg_build --pkg-config-flags=--static --extra-cflags=-I/home/jaroslav/ffmpeg_build/include --extra-ldflags=-L/home/jaroslav/ffmpeg_build/lib --bindir=/home/jaroslav/bin --enable-gpl --enable-libass --enable-libfdk-aac --enable-libfreetype --enable-libmp3lame --enable-libopus --enable-libtheora --enable-libvorbis --enable-libvpx --enable-libx264 --enable-libx265 --enable-nvenc --enable-libmfx --enable-libxvid --enable-libgsm --enable-libopencore-amrnb --enable-version3 --enable-nonfree
  libavutil      55. 35.100 / 55. 35.100
  libavcodec     57. 66.101 / 57. 66.101
  libavformat    57. 57.100 / 57. 57.100
  libavdevice    57.  2.100 / 57.  2.100
  libavfilter     6. 66.100 /  6. 66.100
  libswscale      4.  3.100 /  4.  3.100
  libswresample   2.  4.100 /  2.  4.100
  libpostproc    54.  2.100 / 54.  2.100
Input #0, yuv4mpegpipe, from 'Input/y4m/old_town_cross_2160p50.y4m':
  Duration: 00:00:10.00, start: 0.000000, bitrate: 4976642 kb/s
    Stream #0:0: Video: rawvideo (I420 / 0x30323449), yuv420p(progressive), 3840x2160, SAR 1:1 DAR 16:9, 50 fps, 50 tbr, 50 tbn, 50 tbc
[libx264 @ 0x35c1120] using SAR=1/1
[libx264 @ 0x35c1120] using cpu capabilities: MMX2 SSE2Fast SSSE3 SSE4.2 AVX FMA3 AVX2 LZCNT BMI2
[libx264 @ 0x35c1120] profile High, level 5.2
[libx264 @ 0x35c1120] 264 - core 148 - H.264/MPEG-4 AVC codec - Copyleft 2003-2016 - http://www.videolan.org/x264.html - options: cabac=1 ref=5 deblock=1:0:0 analyse=0x3:0x113 me=hex subme=8 psy=1 psy_rd=1.00:0.00 mixed_ref=1 me_range=16 chroma_me=1 trellis=2 8x8dct=1 cqm=0 deadzone=21,11 fast_pskip=1 chroma_qp_offset=-2 threads=6 lookahead_threads=1 sliced_threads=0 nr=0 decimate=1 interlaced=0 bluray_compat=0 constrained_intra=0 bframes=3 b_pyramid=2 b_adapt=1 b_bias=0 direct=3 weightb=1 open_gop=0 weightp=2 keyint=250 keyint_min=25 scenecut=40 intra_refresh=0 rc_lookahead=50 rc=abr mbtree=1 bitrate=7000 ratetol=1.0 qcomp=0.60 qpmin=0 qpmax=69 qpstep=4 ip_ratio=1.40 aq=1:1.00
Output #0, matroska, to 'Output/x264/encoded/old_town_cross_2160p50slow7000k.mkv':
  Metadata:
    encoder         : Lavf57.57.100
    Stream #0:0: Video: h264 (libx264) (H264 / 0x34363248), yuv420p, 3840x2160 [SAR 1:1 DAR 16:9], q=-1--1, 7000 kb/s, 50 fps, 1k tbn, 50 tbc
    Metadata:
      encoder         : Lavc57.66.101 libx264
    Side data:
      cpb: bitrate max/min/avg: 0/0/7000000 buffer size: 0 vbv_delay: -1
Stream mapping:
  Stream #0:0 -> #0:0 (rawvideo (native) -> h264 (libx264))
Press [q] to stop, [?] for help
frame=   57 fps= 18 q=0.0 size=       0kB time=00:00:00.00 bitrate=N/A speed=   0x    frame=   62 fps= 16 q=37.0 size=       1kB time=-00:00:00.01 bitrate=N/A speed=N/A    frame=   68 fps= 16 q=44.0 size=       1kB time=00:00:00.10 bitrate=  58.1kbits/s speed=0.0234x    frame=   76 fps= 16 q=41.0 size=       1kB time=00:00:00.26 bitrate=  22.5kbits/s speed=0.0533x    frame=   84 fps= 15 q=39.0 size=       1kB time=00:00:00.42 bitrate=  13.9kbits/s speed=0.0763x    frame=   90 fps= 15 q=37.0 size=       1kB time=00:00:00.54 bitrate=  10.9kbits/s speed=0.089x    frame=   95 fps= 14 q=37.0 size=       1kB time=00:00:00.64 bitrate=   9.2kbits/s speed=0.0959x    frame=   99 fps= 14 q=37.0 size=       1kB time=00:00:00.72 bitrate=   8.1kbits/s speed= 0.1x    frame=  105 fps= 14 q=36.0 size=       1kB time=00:00:00.84 bitrate=   7.0kbits/s speed=0.109x    frame=  111 fps= 13 q=36.0 size=       1kB time=00:00:00.96 bitrate=   6.1kbits/s speed=0.114x    frame=  115 fps= 13 q=36.0 size=       1kB time=00:00:01.04 bitrate=   5.6kbits/s speed=0.115x    frame=  121 fps= 13 q=35.0 size=       1kB time=00:00:01.16 bitrate=   5.1kbits/s speed=0.121x    frame=  125 fps= 12 q=35.0 size=       1kB time=00:00:01.24 bitrate=   4.7kbits/s speed=0.122x    frame=  130 fps= 12 q=35.0 size=       1kB time=00:00:01.34 bitrate=   4.4kbits/s speed=0.126x    frame=  135 fps= 12 q=35.0 size=       1kB time=00:00:01.44 bitrate=   4.1kbits/s speed=0.126x    frame=  141 fps= 12 q=35.0 size=       1kB time=00:00:01.56 bitrate=   3.8kbits/s speed=0.13x    frame=  145 fps= 12 q=35.0 size=       1kB time=00:00:01.64 bitrate=   3.6kbits/s speed=0.13x    frame=  151 fps= 11 q=35.0 size=       1kB time=00:00:01.76 bitrate=   3.3kbits/s speed=0.131x    frame=  158 fps= 11 q=35.0 size=       1kB time=00:00:01.90 bitrate=   3.1kbits/s speed=0.134x    frame=  164 fps= 11 q=35.0 size=       1kB time=00:00:02.02 bitrate=   2.9kbits/s speed=0.137x    frame=  167 fps= 11 q=35.0 size=       1kB time=00:00:02.08 bitrate=   2.8kbits/s speed=0.134x    frame=  173 fps= 11 q=35.0 size=       1kB time=00:00:02.20 bitrate=   2.7kbits/s speed=0.137x    frame=  177 fps= 11 q=35.0 size=       1kB time=00:00:02.28 bitrate=   2.6kbits/s speed=0.137x    frame=  183 fps= 10 q=35.0 size=       1kB time=00:00:02.40 bitrate=   2.4kbits/s speed=0.137x    frame=  189 fps= 10 q=35.0 size=       1kB time=00:00:02.52 bitrate=   2.3kbits/s speed=0.14x    frame=  191 fps= 10 q=35.0 size=       1kB time=00:00:02.56 bitrate=   2.3kbits/s speed=0.138x    frame=  198 fps= 10 q=35.0 size=       1kB time=00:00:02.70 bitrate=   2.2kbits/s speed=0.141x    frame=  201 fps= 10 q=35.0 size=       1kB time=00:00:02.76 bitrate=   2.1kbits/s speed=0.14x    frame=  205 fps= 10 q=35.0 size=       1kB time=00:00:02.84 bitrate=   2.1kbits/s speed=0.14x    frame=  209 fps= 10 q=35.0 size=       1kB time=00:00:02.92 bitrate=   2.0kbits/s speed=0.141x    frame=  215 fps=9.9 q=35.0 size=       1kB time=00:00:03.04 bitrate=   1.9kbits/s speed=0.14x    frame=  220 fps=9.9 q=35.0 size=       1kB time=00:00:03.14 bitrate=   1.9kbits/s speed=0.142x    frame=  224 fps=9.9 q=35.0 size=       1kB time=00:00:03.22 bitrate=   1.8kbits/s speed=0.142x    frame=  227 fps=9.8 q=35.0 size=       1kB time=00:00:03.28 bitrate=   1.8kbits/s speed=0.141x    frame=  232 fps=9.8 q=35.0 size=       1kB time=00:00:03.38 bitrate=   1.7kbits/s speed=0.142x    frame=  236 fps=9.7 q=35.0 size=       1kB time=00:00:03.46 bitrate=   1.7kbits/s speed=0.143x    frame=  240 fps=9.7 q=35.0 size=       1kB time=00:00:03.54 bitrate=   1.7kbits/s speed=0.143x    frame=  245 fps=9.7 q=35.0 size=       1kB time=00:00:03.64 bitrate=   1.6kbits/s speed=0.144x    frame=  249 fps=9.6 q=35.0 size=       1kB time=00:00:03.72 bitrate=   1.6kbits/s speed=0.144x    frame=  252 fps=9.6 q=35.0 size=       1kB time=00:00:03.78 bitrate=   1.6kbits/s speed=0.143x    frame=  256 fps=9.5 q=35.0 size=       1kB time=00:00:03.86 bitrate=   1.5kbits/s speed=0.144x    frame=  260 fps=9.5 q=35.0 size=       1kB time=00:00:03.94 bitrate=   1.5kbits/s speed=0.144x    frame=  265 fps=9.5 q=35.0 size=       1kB time=00:00:04.04 bitrate=   1.5kbits/s speed=0.144x    frame=  268 fps=9.4 q=35.0 size=       1kB time=00:00:04.10 bitrate=   1.4kbits/s speed=0.143x    frame=  272 fps=9.2 q=35.0 size=       1kB time=00:00:04.18 bitrate=   1.4kbits/s speed=0.141x    frame=  273 fps=9.0 q=35.0 size=       1kB time=00:00:04.20 bitrate=   1.4kbits/s speed=0.138x    frame=  275 fps=8.8 q=35.0 size=       1kB time=00:00:04.24 bitrate=   1.4kbits/s speed=0.135x    frame=  279 fps=8.7 q=35.0 size=       1kB time=00:00:04.32 bitrate=   1.4kbits/s speed=0.135x    frame=  283 fps=8.7 q=35.0 size=       1kB time=00:00:04.40 bitrate=   1.3kbits/s speed=0.136x    frame=  286 fps=8.7 q=35.0 size=       1kB time=00:00:04.46 bitrate=   1.3kbits/s speed=0.135x    frame=  290 fps=8.6 q=35.0 size=       1kB time=00:00:04.54 bitrate=   1.3kbits/s speed=0.135x    frame=  294 fps=8.6 q=35.0 size=       1kB time=00:00:04.62 bitrate=   1.3kbits/s speed=0.135x    frame=  299 fps=8.6 q=36.0 size=       1kB time=00:00:04.72 bitrate=   1.2kbits/s speed=0.136x    frame=  303 fps=8.6 q=36.0 size=       1kB time=00:00:04.80 bitrate=   1.2kbits/s speed=0.136x    frame=  307 fps=8.5 q=36.0 size=       1kB time=00:00:04.88 bitrate=   1.2kbits/s speed=0.136x    frame=  311 fps=8.5 q=36.0 size=    4152kB time=00:00:04.96 bitrate=6855.3kbits/s speed=0.135x    frame=  317 fps=8.5 q=36.0 size=    4152kB time=00:00:05.08 bitrate=6693.4kbits/s speed=0.136x    frame=  324 fps=8.5 q=36.0 size=    4152kB time=00:00:05.22 bitrate=6513.9kbits/s speed=0.137x    frame=  330 fps=8.6 q=36.0 size=    4152kB time=00:00:05.34 bitrate=6367.6kbits/s speed=0.138x    frame=  333 fps=8.5 q=36.0 size=    4152kB time=00:00:05.40 bitrate=6296.8kbits/s speed=0.138x    frame=  340 fps=8.5 q=36.0 size=    4152kB time=00:00:05.54 bitrate=6137.7kbits/s speed=0.139x    frame=  345 fps=8.5 q=36.0 size=    4152kB time=00:00:05.64 bitrate=6028.9kbits/s speed=0.14x    frame=  349 fps=8.5 q=36.0 size=    4152kB time=00:00:05.72 bitrate=5944.6kbits/s speed=0.14x    frame=  355 fps=8.6 q=36.0 size=    4152kB time=00:00:05.84 bitrate=5822.5kbits/s speed=0.141x    frame=  360 fps=8.5 q=36.0 size=    4152kB time=00:00:05.94 bitrate=5724.5kbits/s speed=0.14x    frame=  366 fps=8.5 q=36.0 size=    4152kB time=00:00:06.06 bitrate=5611.1kbits/s speed=0.141x    frame=  369 fps=8.5 q=36.0 size=    4152kB time=00:00:06.12 bitrate=5556.1kbits/s speed=0.141x    frame=  376 fps=8.5 q=36.0 size=    4152kB time=00:00:06.26 bitrate=5431.9kbits/s speed=0.142x    frame=  380 fps=8.5 q=36.0 size=    4152kB time=00:00:06.34 bitrate=5363.4kbits/s speed=0.142x    frame=  384 fps=8.5 q=36.0 size=    4152kB time=00:00:06.42 bitrate=5296.6kbits/s speed=0.142x    frame=  389 fps=8.5 q=36.0 size=    4152kB time=00:00:06.52 bitrate=5215.3kbits/s speed=0.142x    frame=  393 fps=8.5 q=36.0 size=    4152kB time=00:00:06.60 bitrate=5152.1kbits/s speed=0.143x    frame=  399 fps=8.5 q=36.0 size=    4152kB time=00:00:06.72 bitrate=5060.1kbits/s speed=0.144x    frame=  402 fps=8.5 q=36.0 size=    4152kB time=00:00:06.78 bitrate=5015.4kbits/s speed=0.143x    frame=  407 fps=8.5 q=36.0 size=    4152kB time=00:00:06.88 bitrate=4942.5kbits/s speed=0.144x    frame=  412 fps=8.4 q=36.0 size=    4152kB time=00:00:06.98 bitrate=4871.7kbits/s speed=0.143x    frame=  418 fps=8.5 q=36.0 size=    4152kB time=00:00:07.10 bitrate=4789.3kbits/s speed=0.144x    frame=  422 fps=8.5 q=36.0 size=    4152kB time=00:00:07.18 bitrate=4736.0kbits/s speed=0.144x    frame=  426 fps=8.4 q=36.0 size=    4152kB time=00:00:07.26 bitrate=4683.8kbits/s speed=0.144x    frame=  431 fps=8.5 q=36.0 size=    4152kB time=00:00:07.36 bitrate=4620.2kbits/s speed=0.145x    frame=  436 fps=8.4 q=36.0 size=    4152kB time=00:00:07.46 bitrate=4558.3kbits/s speed=0.144x    frame=  441 fps=8.4 q=36.0 size=    4152kB time=00:00:07.56 bitrate=4498.0kbits/s speed=0.145x    frame=  447 fps=8.5 q=36.0 size=    4152kB time=00:00:07.68 bitrate=4427.7kbits/s speed=0.145x    frame=  450 fps=8.4 q=36.0 size=    4152kB time=00:00:07.74 bitrate=4393.4kbits/s speed=0.145x    frame=  456 fps=8.4 q=36.0 size=    4152kB time=00:00:07.86 bitrate=4326.3kbits/s speed=0.146x    frame=  460 fps=8.4 q=36.0 size=    4152kB time=00:00:07.94 bitrate=4282.7kbits/s speed=0.145x    frame=  465 fps=8.4 q=36.0 size=    4152kB time=00:00:08.04 bitrate=4229.5kbits/s speed=0.146x    frame=  468 fps=8.4 q=36.0 size=    4152kB time=00:00:08.10 bitrate=4198.1kbits/s speed=0.145x    frame=  475 fps=8.4 q=36.0 size=    4152kB time=00:00:08.24 bitrate=4126.8kbits/s speed=0.146x    frame=  478 fps=8.4 q=36.0 size=    4152kB time=00:00:08.30 bitrate=4097.0kbits/s speed=0.146x    frame=  483 fps=8.4 q=35.0 size=    4152kB time=00:00:08.40 bitrate=4048.2kbits/s speed=0.147x    frame=  486 fps=8.4 q=35.0 size=    4152kB time=00:00:08.46 bitrate=4019.5kbits/s speed=0.146x    frame=  492 fps=8.4 q=35.0 size=    4152kB time=00:00:08.58 bitrate=3963.3kbits/s speed=0.146x    frame=  498 fps=8.4 q=35.0 size=    4152kB time=00:00:08.70 bitrate=3908.6kbits/s speed=0.147x    frame=  500 fps=7.5 q=-1.0 Lsize=    8678kB time=00:00:09.94 bitrate=7151.4kbits/s speed=0.149x    
video:8674kB audio:0kB subtitle:0kB other streams:0kB global headers:0kB muxing overhead: 0.051025%
bench: utime=244.976s
bench: maxrss=2226172kB
[libx264 @ 0x35c1120] frame I:3     Avg QP:31.80  size:287195
[libx264 @ 0x35c1120] frame P:183   Avg QP:33.58  size: 26830
[libx264 @ 0x35c1120] frame B:314   Avg QP:35.80  size:  9904
[libx264 @ 0x35c1120] consecutive B-frames: 16.0%  0.8%  0.0% 83.2%
[libx264 @ 0x35c1120] mb I  I16..4: 35.8% 52.8% 11.4%
[libx264 @ 0x35c1120] mb P  I16..4:  0.0%  0.0%  0.0%  P16..4: 26.2%  2.0%  3.5%  0.0%  0.0%    skip:68.2%
[libx264 @ 0x35c1120] mb B  I16..4:  0.0%  0.0%  0.0%  B16..8: 38.0%  0.1%  0.0%  direct: 0.0%  skip:61.9%  L0:46.6% L1:53.4% BI: 0.0%
[libx264 @ 0x35c1120] final ratefactor: 27.80
[libx264 @ 0x35c1120] 8x8 transform intra:52.6% inter:74.0%
[libx264 @ 0x35c1120] direct mvs  spatial:98.7% temporal:1.3%
[libx264 @ 0x35c1120] coded y,uvDC,uvAC intra: 68.1% 57.1% 32.0% inter: 2.1% 2.9% 0.0%
[libx264 @ 0x35c1120] i16 v,h,dc,p:  7% 18%  4% 71%
[libx264 @ 0x35c1120] i8 v,h,dc,ddl,ddr,vr,hd,vl,hu:  5%  7%  2% 13% 20% 13% 20%  8% 12%
[libx264 @ 0x35c1120] i4 v,h,dc,ddl,ddr,vr,hd,vl,hu:  2%  3%  1% 17% 20% 13% 19%  9% 15%
[libx264 @ 0x35c1120] i8c dc,h,v,p: 19% 53% 17% 10%
[libx264 @ 0x35c1120] Weighted P-Frames: Y:0.5% UV:0.0%
[libx264 @ 0x35c1120] ref P L0: 64.7% 23.5%  8.3%  1.6%  1.4%  0.4%
[libx264 @ 0x35c1120] ref B L0: 85.8% 10.4%  3.2%  0.6%
[libx264 @ 0x35c1120] ref B L1: 95.6%  4.4%
[libx264 @ 0x35c1120] kb/s:7105.02
